<?xml version="1.0" encoding="UTF-8"?>
<svg version="1.1" xmlns="http://www.w3.org/2000/svg" width="295" height="263">
<path d="M0 0 C97.35 0 194.7 0 295 0 C295 86.79 295 173.58 295 263 C197.65 263 100.3 263 0 263 C0 176.21 0 89.42 0 0 Z " fill="#F3F3F3" transform="translate(0,0)"/>
<path d="M0 0 C4.08319884 -0.0871142 8.16615864 -0.14043048 12.25 -0.1875 C13.40886719 -0.21263672 14.56773437 -0.23777344 15.76171875 -0.26367188 C16.87675781 -0.27333984 17.99179688 -0.28300781 19.140625 -0.29296875 C20.16704102 -0.3086792 21.19345703 -0.32438965 22.25097656 -0.34057617 C25.42275154 0.05237464 26.76503267 0.73899927 29 3 C29.51364587 5.56531091 29.83137727 7.85112496 30 10.4375 C30.34025552 15.76569748 30.34025552 15.76569748 32.828125 20.42578125 C35.78124602 22.56626285 38.41594532 22.72430349 42 23 C42 22.34 42 21.68 42 21 C43.32 20.67 44.64 20.34 46 20 C46 19.34 46 18.68 46 18 C49.75960806 14.24039194 52.75900345 13.41105855 58 13 C58 13.66 58 14.32 58 15 C58.70125 15.185625 59.4025 15.37125 60.125 15.5625 C63.56307388 17.28153694 65.22947171 19.35759634 67.5703125 22.34375 C69.08924941 24.2526135 69.08924941 24.2526135 72 26 C72 26.66 72 27.32 72 28 C72.99 28.33 73.98 28.66 75 29 C76.15837626 33.05431692 75.83691257 35.21812119 74 39 C73.34 39 72.68 39 72 39 C71.71125 39.598125 71.4225 40.19625 71.125 40.8125 C70 43 70 43 68 46 C67.50243751 52.3422411 67.50243751 52.3422411 70 58 C70.66 58.33 71.32 58.66 72 59 C72 59.66 72 60.32 72 61 C72.79664063 60.98839844 73.59328125 60.97679687 74.4140625 60.96484375 C75.47367188 60.95582031 76.53328125 60.94679687 77.625 60.9375 C78.66914063 60.92589844 79.71328125 60.91429687 80.7890625 60.90234375 C84 61 84 61 90 62 C90 71.24 90 80.48 90 90 C83.99820829 92.57219645 79.92530898 93.61316033 73.671875 94.375 C70.75923223 95.05631995 69.71669683 95.58411871 68 98 C67.22181839 102.43563519 67.20742924 104.67299858 69.53515625 108.5703125 C70.775718 110.27704016 72.05333959 111.95761052 73.37109375 113.60546875 C75.17154225 116.25217123 75.92516045 117.79686739 76 121 C71.77644666 128.40295044 65.02734558 134.31510294 58 139 C53.86467552 138.66470342 50.6220369 136.93736858 47 135 C47 134.34 47 133.68 47 133 C41.02088887 131.00696296 37.84839141 131.0505362 32 133 C31.22621913 134.8965661 31.22621913 134.8965661 30.8671875 137.21875 C30.70089844 138.06824219 30.53460938 138.91773438 30.36328125 139.79296875 C30.20214844 140.68628906 30.04101562 141.57960937 29.875 142.5 C29.54211329 144.26099611 29.20632993 146.02144795 28.8671875 147.78125 C28.72394043 148.56564453 28.58069336 149.35003906 28.43310547 150.15820312 C28 152 28 152 27 153 C24.92737924 153.08767112 22.85179706 153.10695873 20.77734375 153.09765625 C19.51728516 153.09443359 18.25722656 153.09121094 16.95898438 153.08789062 C15.61848891 153.07953403 14.27799412 153.07106907 12.9375 153.0625 C11.59310058 153.0574866 10.2486994 153.05292342 8.90429688 153.04882812 C5.60282059 153.03699488 2.30143197 153.02050971 -1 153 C-2.03143071 149.90570787 -2.16837221 147.49493435 -2.3125 144.25 C-2.76258748 138.70787802 -3.38317945 135.28307696 -7 131 C-10.27449292 129.87645269 -10.27449292 129.87645269 -14 130 C-16.50692604 131.39955428 -18.43555378 132.65922969 -20.625 134.4375 C-26.19710248 138.85969926 -26.19710248 138.85969926 -29.66015625 139.46484375 C-36.58622797 138.08887959 -42.44565696 129.7990083 -46.55078125 124.4921875 C-48.05776336 121.90066571 -48.48946413 120.63903466 -48.25 117.6875 C-46.78469479 113.36484963 -45.19606308 110.09803154 -41 108 C-40.53157288 105.97666066 -40.53157288 105.97666066 -40.375 103.625 C-40.30023438 102.83351563 -40.22546875 102.04203125 -40.1484375 101.2265625 C-40.03250218 99.48753275 -40 97.74288998 -40 96 C-47.27235389 93.73141173 -54.59684417 91.79354806 -62 90 C-63.27280626 85.5099458 -63.1839845 81.19944686 -63.1875 76.5625 C-63.19974609 75.71623047 -63.21199219 74.86996094 -63.22460938 73.99804688 C-63.24464056 65.4714411 -63.24464056 65.4714411 -61 62 C-58.75 60.890625 -58.75 60.890625 -56 60.25 C-55.02417969 60.02183594 -54.04835937 59.79367188 -53.04296875 59.55859375 C-48.71034896 58.76326046 -44.39470516 58.27645651 -40 58 C-39.54792145 50.94255152 -39.44491774 46.5515065 -44 41 C-44 40.34 -44 39.68 -44 39 C-44.66 39 -45.32 39 -46 39 C-48.00613148 36.3994592 -49.08586574 34.89300374 -48.765625 31.5625 C-46.5222265 24.05398258 -37.60194407 16.72553435 -31 13 C-27.16241783 13.15186779 -25.01262608 14.42012186 -22.1875 16.9375 C-21.28064453 17.72447266 -21.28064453 17.72447266 -20.35546875 18.52734375 C-19 20 -19 20 -19 22 C-13.43842552 22.91457003 -9.324335 23.32086397 -4 21 C-4.01160156 20.28714844 -4.02320313 19.57429688 -4.03515625 18.83984375 C-4.08606026 13.43674634 -3.94608271 8.32171525 -3 3 C-2.34 3 -1.68 3 -1 3 C-0.67 2.01 -0.34 1.02 0 0 Z " fill="#0D0D0D" transform="translate(193,0)"/>
<path d="M0 0 C2.84498781 2.20607105 3.5501543 5.24012253 4.59375 8.5546875 C4.81417969 9.21339844 5.03460938 9.87210938 5.26171875 10.55078125 C5.80236188 12.17271063 6.32484707 13.80067257 6.84375 15.4296875 C11.67509855 16.62498211 11.67509855 16.62498211 16.171875 15.06640625 C17.12320313 14.10154297 17.12320313 14.10154297 18.09375 13.1171875 C20.32842007 10.91380281 22.20933176 9.18596633 24.84375 7.4296875 C33.95268603 7.77342093 39.42368367 13.62881539 45.84375 19.4296875 C44.89910046 25.15315237 43.8428688 29.43115617 40.84375 34.4296875 C41.11012544 38.07015181 42.17047014 40.08312778 43.84375 43.4296875 C49.78375 43.4296875 55.72375 43.4296875 61.84375 43.4296875 C63.44468961 51.43438557 64.35159981 59.28330678 64.84375 67.4296875 C63.50570312 67.77580078 63.50570312 67.77580078 62.140625 68.12890625 C60.97015625 68.45503906 59.7996875 68.78117187 58.59375 69.1171875 C57.43359375 69.43042969 56.2734375 69.74367188 55.078125 70.06640625 C51.37836682 71.62584538 49.97512768 73.06866885 47.84375 76.4296875 C47.04684162 79.61730859 47.04684162 79.61730859 46.84375 82.4296875 C47.50375 82.4296875 48.16375 82.4296875 48.84375 82.4296875 C50.53515625 84.00390625 50.53515625 84.00390625 52.40625 86.1171875 C53.33630859 87.14392578 53.33630859 87.14392578 54.28515625 88.19140625 C56.06985296 90.75439175 56.69521679 92.31049003 56.84375 95.4296875 C54.41181735 101.28095404 50.55115058 106.24533143 45.84375 110.4296875 C45.18375 111.0896875 44.52375 111.7496875 43.84375 112.4296875 C39.58041857 112.25915424 36.46115157 111.33887493 32.78125 109.3046875 C29.82817276 107.71898844 28.91493965 107.42709879 25.40625 107.5546875 C22.69289167 108.14646523 22.69289167 108.14646523 21.84375 110.4296875 C21.61100791 113.30879338 21.42402243 116.17115245 21.28125 119.0546875 C21.23806641 119.85648437 21.19488281 120.65828125 21.15039062 121.484375 C21.04423543 123.4659386 20.94348145 125.44779021 20.84375 127.4296875 C18.01168882 127.93800617 15.17845266 128.43650255 12.34375 128.9296875 C11.55226563 129.07277344 10.76078125 129.21585938 9.9453125 129.36328125 C4.8313582 130.24355207 0.03262598 130.5725006 -5.15625 130.4296875 C-5.15625 129.1096875 -5.15625 127.7896875 -5.15625 126.4296875 C-5.81625 126.4296875 -6.47625 126.4296875 -7.15625 126.4296875 C-7.33800781 125.74261719 -7.51976562 125.05554688 -7.70703125 124.34765625 C-7.95839844 123.44660156 -8.20976563 122.54554688 -8.46875 121.6171875 C-8.71238281 120.72386719 -8.95601562 119.83054687 -9.20703125 118.91015625 C-10.19462623 116.32940393 -10.92549353 115.04319582 -13.15625 113.4296875 C-17.16084949 113.6481202 -20.82805183 114.08762212 -24.15625 116.4296875 C-25.24791275 118.36299353 -25.24791275 118.36299353 -26.15625 120.4296875 C-27.34375 122.2421875 -27.34375 122.2421875 -29.15625 123.4296875 C-36.15881497 123.71550648 -40.91254735 119.70672496 -46.15625 115.4296875 C-49.23049051 112.42864319 -50.08322863 111.39722067 -50.40625 107.1171875 C-50.32375 106.2303125 -50.24125 105.3434375 -50.15625 104.4296875 C-49.49625 104.4296875 -48.83625 104.4296875 -48.15625 104.4296875 C-45.93783262 99.34037703 -45.76268424 94.76794343 -47.15625 89.4296875 C-47.81625 89.0996875 -48.47625 88.7696875 -49.15625 88.4296875 C-49.15625 87.7696875 -49.15625 87.1096875 -49.15625 86.4296875 C-50.03667969 86.45289063 -50.91710937 86.47609375 -51.82421875 86.5 C-52.98566406 86.51804687 -54.14710937 86.53609375 -55.34375 86.5546875 C-56.49230469 86.57789063 -57.64085937 86.60109375 -58.82421875 86.625 C-62.17501594 86.4285875 -64.27390674 86.13963892 -67.15625 84.4296875 C-69.83179323 80.17605441 -69.38701536 75.47019031 -69.28125 70.6171875 C-69.27222656 69.82892578 -69.26320313 69.04066406 -69.25390625 68.22851562 C-69.23047504 66.29544084 -69.19460838 64.3625237 -69.15625 62.4296875 C-66.51625 62.0996875 -63.87625 61.7696875 -61.15625 61.4296875 C-61.15625 60.7696875 -61.15625 60.1096875 -61.15625 59.4296875 C-58.18625 58.4396875 -55.21625 57.4496875 -52.15625 56.4296875 C-51.82625 53.4596875 -51.49625 50.4896875 -51.15625 47.4296875 C-52.64125 46.9346875 -52.64125 46.9346875 -54.15625 46.4296875 C-56.34375 44.4921875 -56.34375 44.4921875 -58.15625 42.4296875 C-58.15625 41.7696875 -58.15625 41.1096875 -58.15625 40.4296875 C-58.81625 40.4296875 -59.47625 40.4296875 -60.15625 40.4296875 C-61.50213235 33.08851103 -61.50213235 33.08851103 -59.84375 29.9296875 C-58.15625 28.4296875 -58.15625 28.4296875 -56.15625 28.4296875 C-55.929375 27.7078125 -55.7025 26.9859375 -55.46875 26.2421875 C-53.81144651 22.69082289 -52.32100712 20.7688558 -49.15625 18.4296875 C-44.43207397 18.35349111 -41.5228092 19.03720197 -37.53125 21.4921875 C-33.97017878 23.53650617 -32.17386358 23.8216498 -28.15625 23.4296875 C-28.15625 22.7696875 -28.15625 22.1096875 -28.15625 21.4296875 C-27.16625 21.4296875 -26.17625 21.4296875 -25.15625 21.4296875 C-25.17945313 20.46546875 -25.20265625 19.50125 -25.2265625 18.5078125 C-25.24460938 17.24453125 -25.26265625 15.98125 -25.28125 14.6796875 C-25.30445313 13.42671875 -25.32765625 12.17375 -25.3515625 10.8828125 C-25.17162302 7.70148258 -24.84623582 6.06446854 -23.15625 3.4296875 C-22.49625 3.4296875 -21.83625 3.4296875 -21.15625 3.4296875 C-21.15625 2.7696875 -21.15625 2.1096875 -21.15625 1.4296875 C-14.30805098 -0.63769334 -7.04877037 -1.86434868 0 0 Z " fill="#060606" transform="translate(82.15625,81.5703125)"/>
<path d="M0 0 C2.34991507 2.14849377 3.64001987 4.28663278 5.06640625 7.11328125 C6.23909541 9.29223834 7.35339357 11.15086978 9 13 C12.71035447 14.08751769 13.5471975 14.30426266 17 13 C19.98737884 10.85478546 22.686841 8.5631094 25.38671875 6.06640625 C28.19776515 3.84362068 29.4228706 2.91380411 33 3 C35.54644285 4.3821841 37.55606233 5.68416995 39.8125 7.4375 C40.40998047 7.85193359 41.00746094 8.26636719 41.62304688 8.69335938 C44.11536493 10.59321782 45.78170559 11.88890004 46.40185547 15.04541016 C46.42739625 18.44697815 46.07782457 21.76652628 45 25 C44.34 25 43.68 25 43 25 C42.505 26.485 42.505 26.485 42 28 C41.34 28.33 40.68 28.66 40 29 C39.92572162 32.34252724 39.93453047 34.8035914 41 38 C46.93714103 40.75652976 53.54647975 41.47955482 60 42 C60 47.61 60 53.22 60 59 C59.34 59 58.68 59 58 59 C57.67 61.31 57.34 63.62 57 66 C55.73542969 66.04898438 54.47085938 66.09796875 53.16796875 66.1484375 C51.50779053 66.2234738 49.84763536 66.29902127 48.1875 66.375 C47.35412109 66.4059375 46.52074219 66.436875 45.66210938 66.46875 C44.85966797 66.50742188 44.05722656 66.54609375 43.23046875 66.5859375 C42.49207764 66.6173584 41.75368652 66.6487793 40.99291992 66.68115234 C38.68650412 66.90834614 38.68650412 66.90834614 36 69 C35.48957187 76.65642189 36.39166403 84.36321095 37 92 C31.40230954 95.42559519 25.69189737 98.69582285 19 99 C16.69706745 97.49423641 15.70749554 95.55620014 14.1875 93.25 C10.62559225 87.65899407 10.62559225 87.65899407 6 83 C2.19998135 82.8856663 2.19998135 82.8856663 -1 84 C-1 84.66 -1 85.32 -1 86 C-3.1953125 88.234375 -3.1953125 88.234375 -6.125 90.75 C-7.07632813 91.59046875 -8.02765625 92.4309375 -9.0078125 93.296875 C-12 95 -12 95 -15.21875 94.359375 C-17.78890995 93.10317323 -19.89867579 91.93968389 -22 90 C-22 89.34 -22 88.68 -22 88 C-22.763125 87.71125 -23.52625 87.4225 -24.3125 87.125 C-27 86 -27 86 -30 84 C-29.67 82.02 -29.34 80.04 -29 78 C-28.34 78 -27.68 78 -27 78 C-26.8453125 76.9171875 -26.8453125 76.9171875 -26.6875 75.8125 C-26 73 -26 73 -24.375 70.625 C-22.46233969 66.97355759 -22.84376252 64.90230149 -24 61 C-26.46115547 59.15565651 -26.46115547 59.15565651 -29 58 C-29 57.34 -29 56.68 -29 56 C-33.29 55.67 -37.58 55.34 -42 55 C-42.0270817 52.27076612 -42.04687847 49.54180363 -42.0625 46.8125 C-42.07087891 46.04357422 -42.07925781 45.27464844 -42.08789062 44.48242188 C-42.10491934 40.51473211 -41.98604115 36.87428766 -41 33 C-35.00768401 31.68679033 -29.15808627 30.73152445 -23.03125 30.34375 C-20.77799295 30.16413103 -20.77799295 30.16413103 -19 28 C-18.27869212 20.3834778 -19.16445945 12.57954638 -20 5 C-18.02 4.67 -16.04 4.34 -14 4 C-14 3.34 -14 2.68 -14 2 C-9.04456162 0.01782465 -5.26202005 -0.59409904 0 0 Z " fill="#050505" transform="translate(184,158)"/>
<path d="M0 0 C0.56074219 0.4125 1.12148437 0.825 1.69921875 1.25 C2.31152344 1.6625 2.92382812 2.075 3.5546875 2.5 C9.51080345 6.97026187 13.40902848 13.90788628 14.69921875 21.25 C14.81842662 23.70623666 14.87444781 26.16590292 14.88671875 28.625 C14.90089844 29.91148438 14.91507813 31.19796875 14.9296875 32.5234375 C14.70636016 36.13452711 14.01214907 38.89761667 12.69921875 42.25 C12.03921875 42.25 11.37921875 42.25 10.69921875 42.25 C10.43109375 43.219375 10.16296875 44.18875 9.88671875 45.1875 C9.29890625 46.7034375 9.29890625 46.7034375 8.69921875 48.25 C7.70921875 48.58 6.71921875 48.91 5.69921875 49.25 C5.69921875 49.91 5.69921875 50.57 5.69921875 51.25 C-2.36526795 57.78537623 -11.19304403 59.06705307 -21.30078125 58.25 C-29.86744957 56.79353398 -34.32241213 52.07933172 -39.48828125 45.4375 C-44.63793005 36.38122107 -46.85103368 28.437534 -44.61328125 18.0625 C-40.62071672 9.50700459 -35.30165034 1.96515722 -26.23828125 -1.6875 C-18.00459866 -3.97463405 -7.47167151 -4.66776875 0 0 Z " fill="#F2F2F2" transform="translate(221.30078125,48.75)"/>
<path d="M0 0 C0 0.66 0 1.32 0 2 C0.78375 2.309375 1.5675 2.61875 2.375 2.9375 C5 4 5 4 7 5 C7.72693904 6.97888961 8.39816251 8.97954558 9 11 C9.66 11 10.32 11 11 11 C15.29020106 18.92921089 16.34814708 26.19444844 14 35 C13.34 35 12.68 35 12 35 C11.89816406 35.5878125 11.79632813 36.175625 11.69140625 36.78125 C10.11268884 41.8474166 4.95082566 45.69723442 0.5625 48.4375 C-5.61431792 51.27615597 -13.35592938 50.61838753 -20 50 C-22.484375 48.9765625 -22.484375 48.9765625 -24 48 C-24 47.34 -24 46.68 -24 46 C-24.7425 45.896875 -25.485 45.79375 -26.25 45.6875 C-29.31575921 44.9210602 -30.73475192 44.18973981 -33 42 C-34.625 39.0625 -34.625 39.0625 -36 36 C-36.35191406 35.4534375 -36.70382813 34.906875 -37.06640625 34.34375 C-38.49618847 30.75433856 -38.32864873 27.26474987 -38.3125 23.4375 C-38.32861328 22.66986328 -38.34472656 21.90222656 -38.36132812 21.11132812 C-38.36623861 15.47900417 -38.36623861 15.47900417 -36.56640625 13.125 C-36.04949219 12.75375 -35.53257813 12.3825 -35 12 C-34.54625 11.195625 -34.0925 10.39125 -33.625 9.5625 C-31.71745519 6.55444858 -29.93501066 5.02189623 -27 3 C-26.48050781 2.62488281 -25.96101563 2.24976562 -25.42578125 1.86328125 C-18.37188793 -2.49758556 -7.80055599 -2.42289997 0 0 Z " fill="#F0F0F0" transform="translate(92,122)"/>
<path d="M0 0 C0 0.66 0 1.32 0 2 C0.78375 2.2475 1.5675 2.495 2.375 2.75 C5.43941457 4.20924503 5.61725761 5.05014956 7 8 C8.32 8.66 9.64 9.32 11 10 C11 13.3 11 16.6 11 20 C10.34 20 9.68 20 9 20 C8.979375 20.721875 8.95875 21.44375 8.9375 22.1875 C7.70548338 25.88354985 5.80577451 26.8660394 2.59375 28.88671875 C0.83938228 29.92360931 0.83938228 29.92360931 0 32 C-5.29144775 33.29997505 -10.35972149 33.86796472 -15.1875 31.0625 C-16.115625 30.381875 -17.04375 29.70125 -18 29 C-18 28.34 -18 27.68 -18 27 C-18.99 26.67 -19.98 26.34 -21 26 C-23.57492368 21.66328644 -23.56176934 16.89171459 -23 12 C-21.41600342 7.80240908 -19.44288942 4.88758467 -16 2 C-15.34 2 -14.68 2 -14 2 C-14 1.34 -14 0.68 -14 0 C-9.32517708 -1.49594333 -4.64398011 -1.54799337 0 0 Z " fill="#E8E8E8" transform="translate(199,191)"/>
<path d="M0 0 C3.88370315 1.29456772 5.98557243 3.5257241 8 7 C8.39321751 12.8982626 4.31920443 17.43228747 1 22 C-2.59848639 18.5655197 -2.89488707 16.47158104 -3.25 11.5 C-2.98931701 7.85043817 -2.60271681 6.50261232 0 4 C0.66 4 1.32 4 2 4 C2 3.34 2 2.68 2 2 C1.34 2 0.68 2 0 2 C0 1.34 0 0.68 0 0 Z " fill="#313131" transform="translate(131,166)"/>
<path d="M0 0 C0.33 0.66 0.66 1.32 1 2 C0.01 2.495 0.01 2.495 -1 3 C-1 9.93 -1 16.86 -1 24 C-1.33 24 -1.66 24 -2 24 C-2.33675279 21.10452736 -2.66951734 18.20868928 -3 15.3125 C-3.09539062 14.49587891 -3.19078125 13.67925781 -3.2890625 12.83789062 C-3.73870522 8.87139948 -4.13034543 4.99997537 -4 1 C-2.68 0.67 -1.36 0.34 0 0 Z " fill="#323333" transform="translate(168,162)"/>
<path d="M0 0 C0.66 0.33 1.32 0.66 2 1 C0.90653119 2.34212062 -0.2001575 3.67347975 -1.3125 5 C-2.23482422 6.11375 -2.23482422 6.11375 -3.17578125 7.25 C-5 9 -5 9 -8 9 C-6.85459775 7.68712379 -5.70866567 6.37470979 -4.5625 5.0625 C-3.92441406 4.33160156 -3.28632813 3.60070313 -2.62890625 2.84765625 C-1.77458541 1.87860647 -0.91348825 0.91348825 0 0 Z " fill="#C3C4C4" transform="translate(188,51)"/>
<path d="M0 0 C1.32 0.33 2.64 0.66 4 1 C2.71034824 2.37562854 1.37310707 3.70766393 0 5 C-0.66 5 -1.32 5 -2 5 C-2 6.65 -2 8.3 -2 10 C-2.33 10 -2.66 10 -3 10 C-3 7.69 -3 5.38 -3 3 C-2.34 3 -1.68 3 -1 3 C-0.67 2.01 -0.34 1.02 0 0 Z " fill="#505151" transform="translate(193,0)"/>
<path d="M0 0 C0.66 0.33 1.32 0.66 2 1 C0.02 3.31 -1.96 5.62 -4 8 C-4.33 7.01 -4.66 6.02 -5 5 C-3.35 3.35 -1.7 1.7 0 0 Z " fill="#B5B6B5" transform="translate(63,126)"/>
</svg>
